# xmcd CD database file
#
# Track frame offsets:
#	150
#	14293
#	35847
#	44458
#	54816
#	67731
#	80110
#	106651
#	120059
#	132818
#	136509
#	147786
#	161194
#	165023
#
# Disc length: 2373 seconds
#
# Revision: 0
# Processed by: cddbd v1.4PL0 Copyright (c) Steve Scherf et al.
# Submitted via: NeoAudio 9.9.9
#
DISCID=a209430e
DTITLE=David Hardee - Legacy
DYEAR=2002
DGENRE=New Age
TTITLE0=Reflection
TTITLE1=Cascades
TTITLE2=Exileration
TTITLE3=Flight
TTITLE4=Flow
TTITLE5=Legacy
TTITLE6=Cristofori's Dream (David Lanz)
TTITLE7=Der Glocke Clang
TTITLE8=Lobe Den Hern
TTITLE9=Komm du Quelle
TTITLE10=Der Glocke Clang Remix
TTITLE11=Der Glocke Clang 2
TTITLE12=Komm du Quelle Clean
TTITLE13=Lobe den Herr clean
EXTD=YEAR: 2002
EXTT0=
EXTT1=
EXTT2=
EXTT3=
EXTT4=
EXTT5=
EXTT6=
EXTT7=
EXTT8=
EXTT9=
EXTT10=
EXTT11=
EXTT12=
EXTT13=
PLAYORDER=
